<svg width="133" height="321" viewBox="0 0 133 321" fill="none" xmlns="http://www.w3.org/2000/svg">
<path d="M105.11 308.04L101.722 305.914L105.11 308.04ZM44.18 314.61L45.5986 310.87L45.5881 310.866L45.5775 310.862L44.18 314.61ZM36.08 308.04L39.4981 305.962L36.08 308.04ZM36.08 283.29L39.4796 285.398L39.4889 285.383L39.4981 285.368L36.08 283.29ZM44.18 276.72L45.5775 280.468L45.6162 280.454L45.6545 280.438L44.18 276.72ZM96.83 276.72L95.3983 280.455L95.4153 280.462L95.4325 280.468L96.83 276.72ZM105.11 283.29L108.479 281.134L108.474 281.125L108.468 281.117L105.11 283.29ZM96.74 290.85L93.7504 293.507L93.7882 293.55L93.8272 293.591L96.74 290.85ZM92.78 288.69L93.6181 284.779L93.6181 284.779L92.78 288.69ZM48.23 288.69L47.3623 284.785L47.3623 284.785L48.23 288.69ZM44.45 290.85L47.3628 293.591L47.4456 293.504L47.5229 293.411L44.45 290.85ZM44.45 300.48L47.5229 297.919L47.482 297.87L47.4396 297.823L44.45 300.48ZM48.23 302.64L47.3623 306.545L47.3623 306.545L48.23 302.64ZM92.78 302.73L93.4832 306.668L93.5509 306.656L93.6181 306.641L92.78 302.73ZM96.74 300.57L93.7504 297.913L93.7504 297.913L96.74 300.57ZM103.99 295.71C103.99 300.424 103.106 303.708 101.722 305.914L108.498 310.166C110.954 306.252 111.99 301.316 111.99 295.71L103.99 295.71ZM101.722 305.914C100.303 308.175 98.2752 309.82 95.453 310.854L98.207 318.366C102.585 316.76 106.077 314.025 108.498 310.166L101.722 305.914ZM95.453 310.854C92.3991 311.974 88.6268 312.59 84.05 312.59L84.05 320.59C89.3132 320.59 94.0609 319.886 98.207 318.366L95.453 310.854ZM84.05 312.59L56.78 312.59L56.78 320.59L84.05 320.59L84.05 312.59ZM56.78 312.59C52.1974 312.59 48.5055 311.973 45.5986 310.87L42.7614 318.35C46.8144 319.887 51.5226 320.59 56.78 320.59L56.78 312.59ZM45.5775 310.862C42.8297 309.837 40.8644 308.21 39.4981 305.962L32.6619 310.118C35.0156 313.99 38.4503 316.743 42.7825 318.358L45.5775 310.862ZM39.4981 305.962C38.1509 303.746 37.29 300.442 37.29 295.71L29.29 295.71C29.29 301.298 30.289 306.214 32.6619 310.118L39.4981 305.962ZM37.29 295.71C37.29 290.83 38.1608 287.525 39.4796 285.398L32.6804 281.182C30.2792 285.055 29.29 290.03 29.29 295.71L37.29 295.71ZM39.4981 285.368C40.8644 283.12 42.8297 281.493 45.5775 280.468L42.7825 272.972C38.4503 274.587 35.0156 277.34 32.6619 281.212L39.4981 285.368ZM45.6545 280.438C48.5432 279.293 52.2145 278.65 56.78 278.65L56.78 270.65C51.5055 270.65 46.7768 271.387 42.7055 273.002L45.6545 280.438ZM56.78 278.65L84.14 278.65L84.14 270.65L56.78 270.65L56.78 278.65ZM84.14 278.65C88.6329 278.65 92.3571 279.289 95.3983 280.455L98.2617 272.985C94.1029 271.391 89.3671 270.65 84.14 270.65L84.14 278.65ZM95.4325 280.468C98.1982 281.499 100.257 283.153 101.752 285.463L108.468 281.117C106.003 277.307 102.542 274.581 98.2275 272.972L95.4325 280.468ZM101.741 285.446C103.095 287.563 103.99 290.848 103.99 295.71L111.99 295.71C111.99 290.012 110.965 285.017 108.479 281.134L101.741 285.446ZM102.18 295.71C102.18 293.042 101.623 290.202 99.6528 288.109L93.8272 293.591C93.7771 293.538 94.18 293.938 94.18 295.71L102.18 295.71ZM99.7296 288.193C98.1033 286.363 95.9686 285.282 93.6181 284.779L91.9419 292.601C92.9514 292.818 93.4567 293.177 93.7504 293.507L99.7296 288.193ZM93.6181 284.779C91.6247 284.352 89.5101 284.15 87.29 284.15L87.29 292.15C89.0299 292.15 90.5753 292.308 91.9419 292.601L93.6181 284.779ZM87.29 284.15L53.72 284.15L53.72 292.15L87.29 292.15L87.29 284.15ZM53.72 284.15C51.4518 284.15 49.3233 284.349 47.3623 284.785L49.0977 292.595C50.3767 292.311 51.9082 292.15 53.72 292.15L53.72 284.15ZM47.3623 284.785C45.0405 285.301 42.9409 286.413 41.3771 288.289L47.5229 293.411C47.7591 293.127 48.1795 292.799 49.0977 292.595L47.3623 284.785ZM41.5372 288.109C39.5671 290.202 39.01 293.042 39.01 295.71L47.01 295.71C47.01 293.938 47.4129 293.538 47.3628 293.591L41.5372 288.109ZM39.01 295.71C39.01 298.353 39.6084 301.054 41.4604 303.137L47.4396 297.823C47.3716 297.746 47.01 297.267 47.01 295.71L39.01 295.71ZM41.3771 303.041C42.9409 304.917 45.0405 306.029 47.3623 306.545L49.0977 298.735C48.1795 298.531 47.7591 298.203 47.5229 297.919L41.3771 303.041ZM47.3623 306.545C49.3233 306.981 51.4518 307.18 53.72 307.18L53.72 299.18C51.9082 299.18 50.3767 299.019 49.0977 298.735L47.3623 306.545ZM53.72 307.18L87.29 307.18L87.29 299.18L53.72 299.18L53.72 307.18ZM87.29 307.18C89.4693 307.18 91.5377 307.015 93.4832 306.668L92.0768 298.792C90.6623 299.045 89.0707 299.18 87.29 299.18L87.29 307.18ZM93.6181 306.641C95.9686 306.138 98.1033 305.057 99.7296 303.227L93.7504 297.913C93.4567 298.243 92.9514 298.602 91.9419 298.819L93.6181 306.641ZM99.7296 303.227C101.597 301.126 102.18 298.378 102.18 295.71L94.18 295.71C94.18 297.362 93.8027 297.854 93.7504 297.913L99.7296 303.227ZM107 264.797L107 268.797L111 268.797L111 264.797L107 264.797ZM34.1 264.797L30.1 264.797L30.1 268.797L34.1 268.797L34.1 264.797ZM35.9 234.917L39.667 236.262L39.6813 236.222L39.6947 236.182L35.9 234.917ZM41.84 227.177L43.9404 230.581L43.9664 230.565L43.9921 230.549L41.84 227.177ZM61.28 225.287L60.3806 229.185L61.28 225.287ZM67.31 228.077L64.8387 231.222L64.8465 231.228L64.8542 231.235L67.31 228.077ZM71.09 233.387L67.3694 234.856L68.6981 238.222L72.18 237.236L71.09 233.387ZM107 223.217L111 223.217L111 217.927L105.91 219.368L107 223.217ZM107 236.537L108.022 240.404L111 239.618L111 236.537L107 236.537ZM73.61 245.357L72.5884 241.49L69.61 242.277L69.61 245.357L73.61 245.357ZM73.61 251.477L69.61 251.477L69.61 255.477L73.61 255.477L73.61 251.477ZM107 251.477L111 251.477L111 247.477L107 247.477L107 251.477ZM65.24 251.477L65.24 255.477L69.24 255.477L69.24 251.477L65.24 251.477ZM64.16 241.217L67.7661 239.486L67.7521 239.457L67.7377 239.428L64.16 241.217ZM60.56 237.887L62.0692 234.183L62.046 234.173L62.0226 234.164L60.56 237.887ZM45.98 238.967L48.295 242.229L48.3552 242.186L48.4137 242.142L45.98 238.967ZM43.19 251.477L39.19 251.477L39.19 255.477L43.19 255.477L43.19 251.477ZM107 260.797L34.1 260.797L34.1 268.797L107 268.797L107 260.797ZM38.1 264.797L38.1 247.337L30.1 247.337L30.1 264.797L38.1 264.797ZM38.1 247.337C38.1 242.714 38.6674 239.061 39.667 236.262L32.133 233.572C30.7326 237.493 30.1 242.12 30.1 247.337L38.1 247.337ZM39.6947 236.182C40.5662 233.568 41.9907 231.784 43.9404 230.581L39.7396 223.773C36.0493 226.05 33.5138 229.427 32.1053 233.652L39.6947 236.182ZM43.9921 230.549C45.9406 229.305 48.9361 228.477 53.36 228.477L53.36 220.477C48.0639 220.477 43.3794 221.449 39.6879 223.805L43.9921 230.549ZM53.36 228.477C56.062 228.477 58.3925 228.726 60.3806 229.185L62.1794 221.39C59.4874 220.768 56.538 220.477 53.36 220.477L53.36 228.477ZM60.3806 229.185C62.2191 229.609 63.6754 230.308 64.8387 231.222L69.7813 224.932C67.5846 223.206 65.0209 222.045 62.1794 221.39L60.3806 229.185ZM64.8542 231.235C65.8081 231.976 66.6809 233.112 67.3694 234.856L74.8106 231.918C73.6991 229.102 72.0519 226.698 69.7658 224.92L64.8542 231.235ZM72.18 237.236L108.09 227.066L105.91 219.368L70 229.538L72.18 237.236ZM103 223.217L103 236.537L111 236.537L111 223.217L103 223.217ZM105.978 232.67L72.5884 241.49L74.6316 249.224L108.022 240.404L105.978 232.67ZM69.61 245.357L69.61 251.477L77.61 251.477L77.61 245.357L69.61 245.357ZM73.61 255.477L107 255.477L107 247.477L73.61 247.477L73.61 255.477ZM103 251.477L103 264.797L111 264.797L111 251.477L103 251.477ZM69.24 251.477L69.24 247.337L61.24 247.337L61.24 251.477L69.24 251.477ZM69.24 247.337C69.24 244.455 68.849 241.742 67.7661 239.486L60.5539 242.948C60.911 243.692 61.24 245.059 61.24 247.337L69.24 247.337ZM67.7377 239.428C66.5221 236.997 64.5854 235.208 62.0692 234.183L59.0508 241.591C59.7746 241.886 60.2379 242.317 60.5823 243.006L67.7377 239.428ZM62.0226 234.164C59.7226 233.261 57.0529 232.897 54.17 232.897L54.17 240.897C56.447 240.897 58.0374 241.194 59.0974 241.61L62.0226 234.164ZM54.17 232.897C50.1296 232.897 46.3579 233.637 43.5463 235.793L48.4137 242.142C49.2021 241.537 50.8904 240.897 54.17 240.897L54.17 232.897ZM43.665 235.705C40.204 238.161 39.19 242.396 39.19 246.617L47.19 246.617C47.19 243.279 48.036 242.413 48.295 242.229L43.665 235.705ZM39.19 246.617L39.19 251.477L47.19 251.477L47.19 246.617L39.19 246.617ZM43.19 255.477L65.24 255.477L65.24 247.477L43.19 247.477L43.19 255.477ZM104.93 207.508L101.689 205.163L104.93 207.508ZM96.29 213.628L97.5003 217.44L97.5369 217.429L97.5732 217.416L96.29 213.628ZM44.99 213.628L46.2003 209.815L46.2003 209.815L44.99 213.628ZM36.35 207.328L39.6884 205.125L39.6833 205.117L39.6782 205.109L36.35 207.328ZM35.81 182.848L39.283 184.832L35.81 182.848ZM43.1 176.548L44.5734 180.267L44.6162 180.25L44.6585 180.232L43.1 176.548ZM58.31 174.568L62.31 174.568L62.31 170.568L58.31 170.568L58.31 174.568ZM58.31 187.258L58.31 191.258L62.31 191.258L62.31 187.258L58.31 187.258ZM48.14 187.798L48.8432 191.736L48.9109 191.724L48.9781 191.709L48.14 187.798ZM44.36 189.778L47.2781 192.514L47.366 192.42L47.4477 192.321L44.36 189.778ZM44.72 199.678L41.969 202.582L42.0104 202.621L42.0528 202.659L44.72 199.678ZM49.22 201.658L48.5831 205.607L48.6454 205.617L48.7081 205.625L49.22 201.658ZM92.42 201.388L93.301 205.29L92.42 201.388ZM96.74 199.048L99.721 201.715L99.761 201.67L99.7996 201.624L96.74 199.048ZM96.56 189.238L93.6562 191.989L93.6562 191.989L96.56 189.238ZM92.06 186.898L91.0899 190.778L91.1473 190.793L91.2052 190.805L92.06 186.898ZM78.38 186.178L78.38 182.178L74.38 182.178L74.38 186.178L78.38 186.178ZM78.38 194.008L78.38 198.008L82.38 198.008L82.38 194.008L78.38 194.008ZM70.01 194.008L66.01 194.008L66.01 198.008L70.01 198.008L70.01 194.008ZM70.01 174.208L70.01 170.208L66.01 170.208L66.01 174.208L70.01 174.208ZM107 174.208L111 174.208L111 170.208L107 170.208L107 174.208ZM107 182.758L107.545 186.721L111 186.246L111 182.758L107 182.758ZM99.8 183.748L99.2551 179.785L84.273 181.845L98.3144 187.462L99.8 183.748ZM105.74 188.158L108.892 185.695L108.887 185.689L108.882 185.682L105.74 188.158ZM103.99 196.078C103.99 200.348 103.08 203.241 101.689 205.163L108.171 209.852C110.86 206.135 111.99 201.408 111.99 196.078L103.99 196.078ZM101.689 205.163C100.197 207.226 98.0453 208.81 95.0068 209.839L97.5732 217.416C101.975 215.926 105.583 213.43 108.171 209.852L101.689 205.163ZM95.0797 209.815C91.7845 210.861 87.7704 211.428 82.97 211.428L82.97 219.428C88.3696 219.428 93.2355 218.794 97.5003 217.44L95.0797 209.815ZM82.97 211.428L58.49 211.428L58.49 219.428L82.97 219.428L82.97 211.428ZM58.49 211.428C53.5588 211.428 49.4875 210.859 46.2003 209.815L43.7797 217.44C48.0524 218.797 52.9812 219.428 58.49 219.428L58.49 211.428ZM46.2003 209.815C43.1969 208.862 41.1113 207.28 39.6884 205.125L33.0116 209.531C35.5487 213.375 39.223 215.994 43.7797 217.44L46.2003 209.815ZM39.6782 205.109C38.2326 202.941 37.29 199.617 37.29 194.728L29.29 194.728C29.29 200.518 30.3874 205.595 33.0218 209.547L39.6782 205.109ZM37.29 194.728C37.29 190.139 38.0735 186.949 39.283 184.832L32.337 180.863C30.1865 184.627 29.29 189.357 29.29 194.728L37.29 194.728ZM39.283 184.832C40.5076 182.689 42.2281 181.196 44.5734 180.267L41.6265 172.829C37.6119 174.42 34.4724 177.126 32.337 180.863L39.283 184.832ZM44.6585 180.232C47.1522 179.177 50.3989 178.568 54.53 178.568L54.53 170.568C49.6611 170.568 45.2877 171.279 41.5414 172.864L44.6585 180.232ZM54.53 178.568L58.31 178.568L58.31 170.568L54.53 170.568L54.53 178.568ZM54.31 174.568L54.31 187.258L62.31 187.258L62.31 174.568L54.31 174.568ZM58.31 183.258L54.17 183.258L54.17 191.258L58.31 191.258L58.31 183.258ZM54.17 183.258C51.642 183.258 49.3359 183.451 47.3019 183.887L48.9781 191.709C50.304 191.425 52.018 191.258 54.17 191.258L54.17 183.258ZM47.4368 183.86C45.0998 184.278 42.8744 185.29 41.2723 187.235L47.4477 192.321C47.5255 192.226 47.8202 191.918 48.8432 191.736L47.4368 183.86ZM41.4418 187.042C39.5025 189.111 39.01 191.962 39.01 194.548L47.01 194.548C47.01 193.689 47.0993 193.123 47.1963 192.78C47.2907 192.446 47.3632 192.423 47.2781 192.514L41.4418 187.042ZM39.01 194.548C39.01 197.448 39.711 200.443 41.969 202.582L47.471 196.774C47.449 196.753 47.01 196.327 47.01 194.548L39.01 194.548ZM42.0528 202.659C43.8824 204.296 46.1431 205.213 48.5831 205.607L49.8569 197.709C48.5769 197.502 47.8376 197.1 47.3872 196.697L42.0528 202.659ZM48.7081 205.625C50.7653 205.89 52.9789 206.018 55.34 206.018L55.34 198.018C53.261 198.018 51.3947 197.905 49.7319 197.691L48.7081 205.625ZM55.34 206.018L85.85 206.018L85.85 198.018L55.34 198.018L55.34 206.018ZM85.85 206.018C88.5778 206.018 91.0767 205.792 93.301 205.29L91.539 197.486C90.0433 197.824 88.1622 198.018 85.85 198.018L85.85 206.018ZM93.301 205.29C95.7704 204.732 98.0226 203.613 99.721 201.715L93.759 196.381C93.4173 196.763 92.7896 197.204 91.539 197.486L93.301 205.29ZM99.7996 201.624C101.574 199.517 102.18 196.85 102.18 194.188L94.18 194.188C94.18 195.726 93.826 196.298 93.6804 196.471L99.7996 201.624ZM102.18 194.188C102.18 191.394 101.476 188.611 99.4638 186.487L93.6562 191.989C93.8037 192.145 94.18 192.662 94.18 194.188L102.18 194.188ZM99.4638 186.487C97.7077 184.633 95.4205 183.538 92.9148 182.99L91.2052 190.805C92.5395 191.097 93.2523 191.563 93.6562 191.989L99.4638 186.487ZM93.0301 183.017C90.7076 182.437 88.0856 182.178 85.22 182.178L85.22 190.178C87.6344 190.178 89.5724 190.399 91.0899 190.778L93.0301 183.017ZM85.22 182.178L78.38 182.178L78.38 190.178L85.22 190.178L85.22 182.178ZM74.38 186.178L74.38 194.008L82.38 194.008L82.38 186.178L74.38 186.178ZM78.38 190.008L70.01 190.008L70.01 198.008L78.38 198.008L78.38 190.008ZM74.01 194.008L74.01 174.208L66.01 174.208L66.01 194.008L74.01 194.008ZM70.01 178.208L107 178.208L107 170.208L70.01 170.208L70.01 178.208ZM103 174.208L103 182.758L111 182.758L111 174.208L103 174.208ZM106.455 178.795L99.2551 179.785L100.345 187.711L107.545 186.721L106.455 178.795ZM98.3144 187.462C100.081 188.168 101.483 189.219 102.598 190.633L108.882 185.682C106.877 183.137 104.319 181.247 101.286 180.034L98.3144 187.462ZM102.588 190.62C103.363 191.613 103.99 193.277 103.99 196.078L111.99 196.078C111.99 192.159 111.117 188.543 108.892 185.695L102.588 190.62ZM107 167.764L106.216 171.687L111 172.644L111 167.764L107 167.764ZM34.1 153.184L30.1 153.184L30.1 156.464L33.3155 157.107L34.1 153.184ZM34.1 138.964L33.3155 135.042L30.1 135.685L30.1 138.964L34.1 138.964ZM107 124.384L111 124.384L111 119.505L106.216 120.462L107 124.384ZM107 136.714L107.675 140.657L111 140.088L111 136.714L107 136.714ZM90.17 139.594L89.4953 135.652L86.17 136.221L86.17 139.594L90.17 139.594ZM90.17 152.284L86.17 152.284L86.17 155.64L89.4749 156.224L90.17 152.284ZM107 155.254L111 155.254L111 151.899L107.695 151.315L107 155.254ZM81.71 150.934L81.0712 154.883L85.71 155.634L85.71 150.934L81.71 150.934ZM81.71 141.034L85.71 141.034L85.71 136.335L81.0712 137.086L81.71 141.034ZM51.11 145.984L50.4712 142.036L50.4712 149.933L51.11 145.984ZM107.784 163.842L34.8845 149.262L33.3155 157.107L106.216 171.687L107.784 163.842ZM38.1 153.184L38.1 138.964L30.1 138.964L30.1 153.184L38.1 153.184ZM34.8845 142.887L107.784 128.307L106.216 120.462L33.3155 135.042L34.8845 142.887ZM103 124.384L103 136.714L111 136.714L111 124.384L103 124.384ZM106.325 132.772L89.4953 135.652L90.8447 143.537L107.675 140.657L106.325 132.772ZM86.17 139.594L86.17 152.284L94.17 152.284L94.17 139.594L86.17 139.594ZM89.4749 156.224L106.305 159.194L107.695 151.315L90.8651 148.345L89.4749 156.224ZM103 155.254L103 167.764L111 167.764L111 155.254L103 155.254ZM85.71 150.934L85.71 141.034L77.71 141.034L77.71 150.934L85.71 150.934ZM81.0712 137.086L50.4712 142.036L51.7487 149.933L82.3487 144.983L81.0712 137.086ZM50.4712 149.933L81.0712 154.883L82.3487 146.986L51.7487 142.036L50.4712 149.933ZM107 117.053L107 121.053L111 121.053L111 117.053L107 117.053ZM34.1 117.053L30.1 117.053L30.1 121.053L34.1 121.053L34.1 117.053ZM34.1 107.783L32.531 104.104L30.1 105.14L30.1 107.783L34.1 107.783ZM75.68 90.053L77.2489 93.7324L75.68 86.053L75.68 90.053ZM34.1 90.053L30.1 90.053L30.1 94.053L34.1 94.053L34.1 90.053ZM34.1 79.073L34.1 75.073L30.1 75.073L30.1 79.073L34.1 79.073ZM107 79.073L111 79.073L111 75.073L107 75.073L107 79.073ZM107 87.893L108.515 91.5951L111 90.5784L111 87.893L107 87.893ZM63.44 105.713L61.9255 102.011L63.44 109.713L63.44 105.713ZM107 105.713L111 105.713L111 101.713L107 101.713L107 105.713ZM107 113.053L34.1 113.053L34.1 121.053L107 121.053L107 113.053ZM38.1 117.053L38.1 107.783L30.1 107.783L30.1 117.053L38.1 117.053ZM35.6689 111.462L77.2489 93.7324L74.111 86.3735L32.531 104.104L35.6689 111.462ZM75.68 86.053L34.1 86.053L34.1 94.053L75.68 94.053L75.68 86.053ZM38.1 90.053L38.1 79.073L30.1 79.073L30.1 90.053L38.1 90.053ZM34.1 83.073L107 83.073L107 75.073L34.1 75.073L34.1 83.073ZM103 79.073L103 87.893L111 87.893L111 79.073L103 79.073ZM105.485 84.1908L61.9255 102.011L64.9545 109.415L108.515 91.5951L105.485 84.1908ZM63.44 109.713L107 109.713L107 101.713L63.44 101.713L63.44 109.713ZM103 105.713L103 117.053L111 117.053L111 105.713L103 105.713ZM107 67.65L107 71.65L111 71.65L111 67.65L107 67.65ZM34.1 67.65L30.1 67.65L30.1 71.65L34.1 71.65L34.1 67.65ZM34.1 54.51L34.1 50.51L30.1 50.51L30.1 54.51L34.1 54.51ZM107 54.51L111 54.51L111 50.51L107 50.51L107 54.51ZM107 63.65L34.1 63.65L34.1 71.65L107 71.65L107 63.65ZM38.1 67.65L38.1 54.51L30.1 54.51L30.1 67.65L38.1 67.65ZM34.1 58.51L107 58.51L107 50.51L34.1 50.51L34.1 58.51ZM103 54.51L103 67.65L111 67.65L111 54.51L103 54.51ZM104.84 36.2048L108.117 38.4987L108.128 38.4835L108.138 38.4682L104.84 36.2048ZM96.29 42.5048L97.5362 46.3058L97.5456 46.3027L97.5549 46.2996L96.29 42.5048ZM44.72 42.5049L45.9662 38.7039L45.9662 38.7039L44.72 42.5049ZM36.26 36.2048L32.9017 38.3778L32.9116 38.3931L32.9215 38.4082L36.26 36.2048ZM35.9 11.8148L39.3041 13.9153L39.3301 13.8731L39.3551 13.8303L35.9 11.8148ZM43.19 5.69485L44.6022 9.43725L43.19 5.69485ZM60.38 3.89483L64.38 3.89483L64.38 -0.105166L60.38 -0.105166L60.38 3.89483ZM60.38 16.6748L60.38 20.6748L64.38 20.6748L64.38 16.6748L60.38 16.6748ZM48.5 17.0348L48.9261 21.0121L48.996 21.0046L49.0657 20.9946L48.5 17.0348ZM44.54 18.7448L47.1865 21.7442L47.2801 21.6616L47.3684 21.5733L44.54 18.7448ZM44.63 28.5548L47.4584 25.7264L47.4584 25.7264L44.63 28.5548ZM48.86 30.5348L49.5396 26.593L49.5286 26.5911L49.5176 26.5893L48.86 30.5348ZM93.05 30.3548L93.9886 34.2432L94.0044 34.2393L94.0201 34.2354L93.05 30.3548ZM96.92 28.1048L99.9929 30.6656L100.069 30.5738L100.14 30.4776L96.92 28.1048ZM96.65 18.8348L93.9925 21.8245L93.998 21.8293L94.0035 21.8342L96.65 18.8348ZM92.42 17.0348L92.9665 13.0724L92.9665 13.0724L92.42 17.0348ZM80 16.6748L76 16.6748L76 20.6748L80 20.6748L80 16.6748ZM80 3.89483L80 -0.105167L76 -0.105167L76 3.89483L80 3.89483ZM97.37 5.60482L98.6761 1.82406L98.6656 1.82046L98.6552 1.81692L97.37 5.60482ZM105.2 11.6348L108.539 9.43246L108.534 9.42422L108.528 9.41604L105.2 11.6348ZM103.99 23.6048C103.99 28.4759 103.024 31.7812 101.542 33.9415L108.138 38.4682C110.855 34.5085 111.99 29.4138 111.99 23.6048L103.99 23.6048ZM101.563 33.911C99.9741 36.1809 97.8424 37.771 95.0251 38.7101L97.5549 46.2996C101.938 44.8387 105.506 42.2288 108.117 38.4987L101.563 33.911ZM95.0438 38.7039C91.8664 39.7457 88.1005 40.3048 83.69 40.3048L83.69 48.3048C88.7595 48.3048 93.3936 47.664 97.5362 46.3058L95.0438 38.7039ZM83.69 40.3048L57.68 40.3048L57.68 48.3048L83.69 48.3048L83.69 40.3048ZM57.68 40.3048C53.0061 40.3048 49.1259 39.7399 45.9662 38.7039L43.4738 46.3058C47.6341 47.6698 52.3939 48.3048 57.68 48.3048L57.68 40.3048ZM45.9662 38.7039C43.0982 37.7636 41.0444 36.1924 39.5984 34.0015L32.9215 38.4082C35.4355 42.2173 39.0218 44.8461 43.4738 46.3058L45.9662 38.7039ZM39.6183 34.0318C38.2094 31.8545 37.29 28.5124 37.29 23.6048L29.29 23.6048C29.29 29.3773 30.3506 34.4352 32.9017 38.3778L39.6183 34.0318ZM37.29 23.6048C37.29 18.9487 38.1065 15.8563 39.3041 13.9153L32.4958 9.71442C30.2135 13.4134 29.29 18.1809 29.29 23.6048L37.29 23.6048ZM39.3551 13.8303C40.5628 11.7599 42.263 10.3199 44.6022 9.43725L41.7778 1.95242C37.7569 3.46972 34.5971 6.10974 32.4449 9.79935L39.3551 13.8303ZM44.6022 9.43725C47.2385 8.44244 50.4327 7.89483 54.26 7.89483L54.26 -0.105166C49.6873 -0.105166 45.5015 0.547239 41.7778 1.95242L44.6022 9.43725ZM54.26 7.89483L60.38 7.89483L60.38 -0.105166L54.26 -0.105166L54.26 7.89483ZM56.38 3.89483L56.38 16.6748L64.38 16.6748L64.38 3.89483L56.38 3.89483ZM60.38 12.6748L54.08 12.6748L54.08 20.6748L60.38 20.6748L60.38 12.6748ZM54.08 12.6748C51.8872 12.6748 49.8346 12.8036 47.9343 13.075L49.0657 20.9946C50.5254 20.7861 52.1928 20.6748 54.08 20.6748L54.08 12.6748ZM48.0738 13.0576C45.7132 13.3105 43.4629 14.165 41.7116 15.9164L47.3684 21.5733C47.537 21.4046 47.9267 21.1192 48.9261 21.0121L48.0738 13.0576ZM41.8935 15.7455C39.5785 17.7881 39.01 20.8335 39.01 23.5148L47.01 23.5148C47.01 22.649 47.1098 22.1196 47.2013 21.834C47.2861 21.5699 47.3277 21.6196 47.1865 21.7442L41.8935 15.7455ZM39.01 23.5148C39.01 26.3381 39.6712 29.2529 41.8016 31.3833L47.4584 25.7264C47.4288 25.6968 47.01 25.2516 47.01 23.5148L39.01 23.5148ZM41.8016 31.3833C43.5508 33.1325 45.7992 34.0799 48.2024 34.4804L49.5176 26.5893C48.3208 26.3898 47.7492 26.0172 47.4584 25.7264L41.8016 31.3833ZM48.1804 34.4767C50.1934 34.8238 52.4074 34.9848 54.8 34.9848L54.8 26.9848C52.7526 26.9848 51.0066 26.8459 49.5396 26.593L48.1804 34.4767ZM54.8 34.9848L86.48 34.9848L86.48 26.9848L54.8 26.9848L54.8 34.9848ZM86.48 34.9848C89.3018 34.9848 91.8335 34.7634 93.9886 34.2432L92.1114 26.4665C90.7865 26.7863 88.9382 26.9848 86.48 26.9848L86.48 34.9848ZM94.0201 34.2354C96.3293 33.6581 98.4343 32.5359 99.9929 30.6656L93.8471 25.5441C93.6057 25.8338 93.1307 26.2115 92.0798 26.4743L94.0201 34.2354ZM100.14 30.4776C101.639 28.443 102.18 25.9894 102.18 23.5148L94.18 23.5148C94.18 24.8803 93.8806 25.4867 93.6998 25.7321L100.14 30.4776ZM102.18 23.5148C102.18 20.853 101.593 17.8619 99.2965 15.8355L94.0035 21.8342C93.8779 21.7234 93.9163 21.6806 93.9955 21.9228C94.0823 22.1882 94.18 22.6884 94.18 23.5148L102.18 23.5148ZM99.3074 15.8452C97.5186 14.2551 95.32 13.397 92.9665 13.0724L91.8734 20.9973C93 21.1527 93.6214 21.4946 93.9925 21.8245L99.3074 15.8452ZM92.9665 13.0724C91.0099 12.8025 88.8731 12.6748 86.57 12.6748L86.57 20.6748C88.5869 20.6748 90.3501 20.7872 91.8734 20.9973L92.9665 13.0724ZM86.57 12.6748L80 12.6748L80 20.6748L86.57 20.6748L86.57 12.6748ZM84 16.6748L84 3.89483L76 3.89483L76 16.6748L84 16.6748ZM80 7.89483L85.85 7.89483L85.85 -0.105167L80 -0.105167L80 7.89483ZM85.85 7.89483C89.8247 7.89483 93.2175 8.41992 96.0848 9.39276L98.6552 1.81692C94.8024 0.509761 90.5153 -0.105168 85.85 -0.105167L85.85 7.89483ZM96.0639 9.38559C98.545 10.2427 100.441 11.7082 101.872 13.8536L108.528 9.41604C106.119 5.80151 102.795 3.24697 98.6761 1.82406L96.0639 9.38559ZM101.861 13.8372C103.118 15.7433 103.99 18.8435 103.99 23.6048L111.99 23.6048C111.99 18.0462 111.002 13.1663 108.539 9.43246L101.861 13.8372Z" fill="#76A713" fill-opacity="0.2"/>
</svg>
